<svg xmlns="http://www.w3.org/2000/svg" viewBox="0 0 119.08 119"><defs><style>.cls-1{fill:#df99a6;}.cls-1,.cls-4{stroke:#fff;stroke-miterlimit:10;}.cls-2,.cls-4{fill:#b00020;}.cls-3{fill:#fff;}</style></defs><g id="图层_1" data-name="图层 1"><path class="cls-1" d="M7,37.5c.62,3.33,2.52,10.81,9,16,3.74,3,7.69,4.16,12,5a91.83,91.83,0,0,0,37-1,89,89,0,0,0,36-18,81.89,81.89,0,0,0,9-9l-5,14-8,12L80.26,61,59.38,62.94l-15.15-.08L27.1,61.11,16,58.5l-9-6-2-6,1-6Z" transform="translate(-0.8 -0.5)"/><path class="cls-1" d="M83,4.5a66.74,66.74,0,0,0-13,7c-19.75,13.66-38.21,42.43-29,63,3.76,8.39,13.19,17.81,25,18,8.24.13,14.45-4.28,17-6.38L82,94.5l-10,11-19,1-13-12-6-16v-20l4-14,9-18,9-11,7-7,7-4,6-2h5Z" transform="translate(-0.8 -0.5)"/><path class="cls-2" d="M6.85,37.65a22.44,22.44,0,0,0,3,12.84c6.08,9.9,19.62,11,31.59,11.84,6.2.43,50.66,3.5,62.19-18.75,3.21-6.19,2.87-12.41,5.93-12.84,4.23-.59,11.63,10.42,8.88,17.77-1.07,2.88-3.77,5.4-15.79,8.89-5.21,1.51-24.09,6.67-53.31,5.92-6.32-.16-10.59-.54-15.8-1a126.74,126.74,0,0,1-19.74-3C6.83,57.72,3.33,56.84,1.91,54.44-1.6,48.52,6.11,38.58,6.85,37.65Z" transform="translate(-0.8 -0.5)"/><path class="cls-3" d="M6.86,37.61a34.61,34.61,0,0,0,.25,4.6,21.57,21.57,0,0,0,1.06,4.42,18.24,18.24,0,0,0,5,7.46,23.25,23.25,0,0,0,7.76,4.51,45.74,45.74,0,0,0,8.81,2.09,156.1,156.1,0,0,0,36.4.7,82.37,82.37,0,0,0,17.75-3.75c5.67-2,11.18-4.78,15.27-9.12a23.25,23.25,0,0,0,4.74-7.43,42.6,42.6,0,0,0,1.39-4.27,35.48,35.48,0,0,1,1.42-4.48,4.39,4.39,0,0,1,1.81-2.13,3.26,3.26,0,0,1,1.52-.33,4.29,4.29,0,0,1,1.38.31,10.31,10.31,0,0,1,3.9,3.06,20.6,20.6,0,0,1,4.24,8.5,13.87,13.87,0,0,1,.25,4.86,8.73,8.73,0,0,1-2,4.6,13.35,13.35,0,0,1-3.92,2.89A35.25,35.25,0,0,1,109.59,56a114.88,114.88,0,0,1-17.79,4.8A191.88,191.88,0,0,1,55.23,64c-3.06,0-6.12-.07-9.18-.21s-6.11-.36-9.16-.63A169.76,169.76,0,0,1,18.67,60.9c-3-.6-6-1.36-8.93-2.14a37.53,37.53,0,0,1-4.4-1.42,6.94,6.94,0,0,1-3.69-2.85,7.62,7.62,0,0,1-.79-4.58,15.85,15.85,0,0,1,1.2-4.45,30.31,30.31,0,0,1,2.12-4.08q.6-1,1.26-1.92c.21-.31.44-.62.67-.93A7.4,7.4,0,0,1,6.86,37.61Zm0,.09a37.27,37.27,0,0,0-4.58,7.83,16.11,16.11,0,0,0-1.13,4.4,7.35,7.35,0,0,0,.8,4.4A6.67,6.67,0,0,0,5.48,57a38.08,38.08,0,0,0,4.37,1.34c3,.74,5.92,1.47,8.92,2a173.2,173.2,0,0,0,18.17,2.18c3,.25,6.09.46,9.14.58s6.1.15,9.15.17A191.67,191.67,0,0,0,91.64,60a114.42,114.42,0,0,0,17.63-4.84,33.63,33.63,0,0,0,4.17-1.84,12.34,12.34,0,0,0,3.63-2.69,7.72,7.72,0,0,0,1.73-4.11,13.17,13.17,0,0,0-.25-4.51,19.62,19.62,0,0,0-4-8.09,9.42,9.42,0,0,0-3.5-2.8,2.58,2.58,0,0,0-2.14,0,3.48,3.48,0,0,0-1.39,1.69,36.59,36.59,0,0,0-1.39,4.34,44.29,44.29,0,0,1-1.44,4.35,24,24,0,0,1-5,7.68c-4.25,4.47-9.88,7.31-15.64,9.27a83.48,83.48,0,0,1-17.91,3.7,155.82,155.82,0,0,1-36.56-.85A45.47,45.47,0,0,1,20.74,59a23.63,23.63,0,0,1-7.83-4.67A18.57,18.57,0,0,1,8,46.7,23.29,23.29,0,0,1,6.83,37.7Z" transform="translate(-0.8 -0.5)"/><path class="cls-4" d="M82.92,84.55a22.21,22.21,0,0,1-4.19,9.21c-1.24,1.6-6.36,7.73-15.06,8.36-9.37.69-15.58-5.54-16.73-6.69-1.44-1.44-5-5.4-7-15.57-3.2-16.29,1.23-30,3.65-37.14a89.66,89.66,0,0,1,5.19-12.16A72.14,72.14,0,0,1,57,17.62c3.74-4.63,7.23-9,13.39-11.71,2.07-.93,6.9-3,10.87-1.68l4.19,1.68s-1.68-3.35-3.35-4.19A16.5,16.5,0,0,0,77.29,1c-1.2,0-3.78.14-8.6,2.4A55.59,55.59,0,0,0,53.21,14.68S52.56,15.32,52,16c-9.71,10-15.9,23.42-15.9,23.42C27,59,28.27,77.42,28.27,83.55c0,0,.81,13.29,6.12,21.08a39.73,39.73,0,0,0,5,5.86s.65.6,1.3,1.15c7.45,6.23,17.94,7.22,17.94,7.22a36.63,36.63,0,0,0,14.23-1.68,40.83,40.83,0,0,0,18.4-10.87C93,104.63,82.92,84.55,82.92,84.55Z" transform="translate(-0.8 -0.5)"/></g></svg>